<?xml version="1.0" encoding="iso-8859-1"?>
<!-- Generator: Adobe Illustrator 22.0.1, SVG Export Plug-In . SVG Version: 6.00 Build 0)  -->
<svg version="1.1" id="Calque_1" xmlns="http://www.w3.org/2000/svg" xmlns:xlink="http://www.w3.org/1999/xlink" x="0px" y="0px"
	 width="432px" height="432px" viewBox="0 0 432 432" enable-background="new 0 0 432 432" xml:space="preserve">
<g>
	<g>
		<path fill="#333333" d="M97.128,124.791c-0.069-5.055,0.316-10.096,0.528-15.138c0.391-9.278,0.979-18.547,1.483-27.819
			c0.252-4.638,0.496-9.276,0.749-13.913c0.11-2.021,1.176-3.142,2.94-3.12c1.7,0.022,2.845,1.232,2.881,3.211
			c0.03,1.682-0.011,3.371-0.135,5.047c-0.522,7.117-0.809,14.248-1.207,21.372c-0.538,9.675-0.983,19.354-1.371,29.035
			c-0.086,2.153-0.031,4.31-0.093,6.464c-0.027,0.96,0.354,1.353,1.304,1.294c3.962-0.252,7.948,0.109,11.898-0.503
			c2.132-0.33,3.63,0.719,3.822,2.569c0.199,1.926-1.146,3.383-3.315,3.465c-4.373,0.165-8.747,0.28-13.122,0.403
			c-0.605,0.017-1.217,0.009-1.815-0.069c-2.654-0.349-4.25-1.95-4.509-4.625C96.92,129.911,97.088,127.348,97.128,124.791z"/>
		<path fill="#333333" d="M128.238,119.375c-0.011,2.55,0.554,4.77,0.93,7.012c0.143,0.847,0.819,1.106,1.508,1.013
			c1.655-0.225,3.354-0.104,4.963-0.732c1.922-0.751,3.689,0.025,4.244,1.766c0.531,1.665-0.363,3.305-2.265,3.89
			c-3.136,0.965-6.378,1.049-9.594,0.666c-2.192-0.261-3.597-1.691-4.207-3.843c-0.831-2.924-1.259-5.926-1.547-8.934
			c-1.151-12.017-0.997-24.064-0.614-36.109c0.116-3.698,0.382-7.391,0.549-11.087c0.037-0.814,0.189-1.595,0.365-2.384
			c0.314-1.401,1.191-2.202,2.529-2.589c0.915-0.264,1.844-0.376,2.792-0.343c3.767,0.132,7.513,0.474,11.211,1.22
			c1.913,0.385,2.908,1.746,2.609,3.44c-0.28,1.593-1.862,2.652-3.667,2.332c-2.716-0.481-5.434-0.906-8.193-1
			c-1.773-0.06-1.8-0.044-1.907,1.661c-0.172,2.753-0.379,5.508-0.438,8.264c-0.197,9.153-0.272,18.309,0.003,27.462
			c0.075,2.511-0.189,2.442,2.461,2.4c1.01-0.016,2.023-0.068,3.028-0.007c1.925,0.118,3.207,1.359,3.174,2.983
			c-0.032,1.637-1.316,2.824-3.26,2.905C131.44,119.423,129.965,119.375,128.238,119.375z"/>
		<path fill="#333333" d="M158.006,74.676c3.096,0,6.192-0.003,9.288,0.002c0.674,0.001,1.34,0.046,1.996,0.239
			c1.585,0.469,2.472,1.617,2.334,3.079c-0.134,1.406-1.288,2.53-2.882,2.594c-1.611,0.064-3.23-0.047-4.845-0.065
			c-3.461-0.039-3.488-0.035-3.425,3.359c0.107,5.72,0.115,11.446,0.413,17.157c0.443,8.527,1.197,17.034,2.475,25.485
			c0.171,1.13,0.351,2.26,0.474,3.396c0.206,1.927-0.967,3.465-2.683,3.615c-1.471,0.128-3.162-1.29-3.332-3.1
			c-0.463-4.952-1.165-9.881-1.696-14.827c-0.576-5.349-0.883-10.719-1.173-16.094c-0.311-5.785-0.17-11.572-0.35-17.357
			c-0.059-1.867-0.069-1.914-1.974-1.831c-1.949,0.085-3.895,0.238-5.837,0.428c-1.074,0.105-2.01-0.082-2.768-0.868
			c-1.519-1.577-0.742-4.14,1.512-4.773c1.356-0.381,2.768-0.535,4.192-0.528c2.76,0.013,5.52,0.003,8.281,0.003
			C158.006,74.619,158.006,74.648,158.006,74.676z"/>
		<path fill="#333333" d="M187.609,76.4c-1.926,6.075-4.627,12.695-6.684,16.454c-0.365,0.667-1.035,1.11-1.79,1.204v0
			c-1.724,0.216-3.092-1.415-2.579-3.074c1.437-4.649,2.883-10.623,3.735-15.475c0.185-1.055,1.049-1.851,2.115-1.957l2.693-0.266
			C186.813,73.116,188.13,74.758,187.609,76.4z"/>
		<path fill="#333333" d="M202.08,71.713c1.888-0.105,3.622,0.419,5.179,1.422c3.849,2.477,5.903,6.194,6.917,10.522
			c0.429,1.832-0.488,3.163-2.119,3.569c-1.469,0.365-2.776-0.406-3.463-2.064c-0.18-0.435-0.286-0.898-0.459-1.337
			c-0.296-0.749-0.587-1.505-0.94-2.229c-0.444-0.912-1.03-1.744-1.75-2.459c-3.194-3.168-6.595-1.28-7.768,1.667
			c-0.735,1.844-0.504,3.706,0.126,5.534c0.913,2.649,2.421,4.963,4.208,7.081c2.562,3.037,5.223,5.989,7.828,8.99
			c2.935,3.38,5.368,7.074,6.962,11.285c0.973,2.571,1.402,5.221,0.817,7.927c-1.195,5.521-6.291,9.668-11.916,9.785
			c-5.447,0.112-8.581-3.425-9.668-8.55c-0.333-1.567-0.308-3.211-0.436-4.821c-0.021-0.267-0.01-0.541,0.028-0.807
			c0.242-1.718,1.59-2.992,3.075-2.92c1.45,0.07,2.672,1.282,2.834,2.94c0.123,1.271,0.048,2.563,0.186,3.831
			c0.459,4.222,3.406,5.655,7.006,3.45c2.632-1.613,3.701-4.027,3.037-7.052c-0.692-3.151-2.311-5.87-4.167-8.451
			c-1.891-2.631-4.127-4.975-6.281-7.385c-2.425-2.713-4.844-5.429-6.75-8.552c-2.189-3.585-3.608-7.362-3.075-11.673
			c0.546-4.425,3.635-8.152,7.793-9.399C200.214,71.739,201.148,71.783,202.08,71.713z"/>
		<path fill="#333333" d="M263.203,97.592c-1.742,0.242-3.202,0.454-4.664,0.64c-0.464,0.059-0.944,0.103-1.408,0.061
			c-1.443-0.127-2.575-1.188-2.754-2.524c-0.161-1.212,0.623-2.512,1.905-3.019c0.555-0.219,1.165-0.331,1.759-0.413
			c1.797-0.25,3.593-0.528,5.4-0.674c3.495-0.281,5.385,1.207,5.554,4.303c0.048,0.874,0.171,1.747,0.157,2.619
			c-0.127,7.738-0.122,15.482-1.135,23.177c-0.406,3.074-1.008,6.103-2.023,9.038c-0.598,1.729-1.414,3.345-2.542,4.792
			c-2.582,3.316-6.495,4.028-10.04,1.827c-2.893-1.795-4.925-4.347-6.389-7.377c-2.147-4.446-3.553-9.141-4.631-13.942
			c-1.434-6.384-2.453-12.825-2.211-19.393c0.224-6.101,1.323-12.025,4.062-17.552c1.235-2.492,2.783-4.761,4.898-6.608
			c4.362-3.808,9.553-4.282,14.328-1.325c1.233,0.764,2.209,1.754,2.856,3.053c0.877,1.758,0.521,3.38-0.915,4.255
			c-1.395,0.85-2.808,0.463-4.02-1.1c-1.814-2.341-4.341-2.869-6.939-1.458c-1.144,0.621-2.075,1.477-2.872,2.498
			c-2.11,2.704-3.296,5.829-4.198,9.092c-1.401,5.067-1.537,10.251-1.129,15.425c0.558,7.059,2.023,13.959,4.433,20.635
			c0.662,1.834,1.395,3.643,2.429,5.313c0.827,1.335,1.853,2.483,3.171,3.341c1.151,0.751,1.751,0.662,2.593-0.402
			c0.933-1.178,1.451-2.565,1.88-3.99c1.173-3.888,1.683-7.891,1.973-11.92c0.402-5.574,0.533-11.161,0.473-16.75
			C263.199,98.755,263.203,98.29,263.203,97.592z"/>
		<path fill="#333333" d="M277.455,119.375c-0.011,2.55,0.554,4.77,0.93,7.012c0.143,0.847,0.819,1.106,1.508,1.013
			c1.655-0.225,3.354-0.104,4.963-0.732c1.922-0.751,3.689,0.025,4.244,1.766c0.531,1.665-0.363,3.305-2.265,3.89
			c-3.136,0.965-6.378,1.049-9.594,0.666c-2.192-0.261-3.597-1.691-4.207-3.843c-0.831-2.924-1.259-5.926-1.547-8.934
			c-1.151-12.017-0.997-24.064-0.614-36.109c0.116-3.698,0.382-7.391,0.549-11.087c0.037-0.814,0.189-1.595,0.365-2.384
			c0.314-1.401,1.191-2.202,2.529-2.589c0.915-0.264,1.844-0.376,2.792-0.343c3.767,0.132,7.513,0.474,11.211,1.22
			c1.913,0.385,2.908,1.746,2.609,3.44c-0.28,1.593-1.862,2.652-3.667,2.332c-2.716-0.481-5.434-0.906-8.193-1
			c-1.773-0.06-1.8-0.044-1.907,1.661c-0.172,2.753-0.379,5.508-0.438,8.264c-0.197,9.153-0.272,18.309,0.003,27.462
			c0.075,2.511-0.189,2.442,2.461,2.4c1.01-0.016,2.023-0.068,3.028-0.007c1.925,0.118,3.207,1.359,3.174,2.983
			c-0.032,1.637-1.316,2.824-3.26,2.905C280.657,119.423,279.182,119.375,277.455,119.375z"/>
		<path fill="#333333" d="M307.223,74.676c3.096,0,6.192-0.003,9.288,0.002c0.674,0.001,1.34,0.046,1.996,0.239
			c1.585,0.469,2.472,1.617,2.334,3.079c-0.134,1.406-1.288,2.53-2.882,2.594c-1.611,0.064-3.23-0.047-4.845-0.065
			c-3.461-0.039-3.488-0.035-3.425,3.359c0.107,5.72,0.115,11.446,0.413,17.157c0.443,8.527,1.197,17.034,2.475,25.485
			c0.171,1.13,0.351,2.26,0.474,3.396c0.206,1.927-0.967,3.465-2.683,3.615c-1.471,0.128-3.162-1.29-3.332-3.1
			c-0.463-4.952-1.165-9.881-1.696-14.827c-0.576-5.349-0.883-10.719-1.173-16.094c-0.311-5.785-0.17-11.572-0.35-17.357
			c-0.059-1.867-0.069-1.914-1.974-1.831c-1.949,0.085-3.895,0.238-5.837,0.428c-1.074,0.105-2.01-0.082-2.768-0.868
			c-1.519-1.577-0.742-4.14,1.512-4.773c1.356-0.381,2.768-0.535,4.192-0.528c2.76,0.013,5.52,0.003,8.281,0.003
			C307.223,74.619,307.223,74.648,307.223,74.676z"/>
	</g>
	<g>
		<path fill="#D69556" d="M199.719,279.982c-1.586-9.99-2.855-20.033-4.825-29.962c-0.105-0.534-0.042-1.146-0.81-1.623
			c-2.603,12.002-4.21,24-5.327,36.068c-0.132,1.422,0.119,1.694,1.623,1.6c2.482-0.156,4.961-0.376,7.436-0.622
			c2.65-0.262,2.7-0.361,2.28-3.084C199.971,281.567,199.846,280.774,199.719,279.982z"/>
		<path fill="#D69556" d="M319.027,242.825c-1.376-0.479-1.533-0.35-1.48,1.071c0.047,1.285,0.146,2.568,0.229,3.851
			c0.404,6.255,0.755,12.515,1.229,18.765c0.492,6.485,1.102,12.96,1.665,19.439c0.352,4.05,0.716,8.098,1.088,12.28
			c0.942-0.161,1.282-0.52,1.644-0.832c7.922-6.814,12.174-15.449,12.543-25.881c0.197-5.591-0.691-11.055-2.975-16.225
			C330.205,249.034,325.4,245.044,319.027,242.825z"/>
		<path fill="#D69556" d="M365.51,264.686c-0.511-6.861-1.648-13.641-3.492-20.334c-2.829-10.271-6.923-20.148-13.187-29.361
			c-4.795-7.051-10.413-13.582-17.27-19.355c-6.216-5.232-13.025-9.811-21.042-13.058c-9.859-3.994-20.187-6.457-31.236-6.602
			c-8.678-0.114-17.117,1.058-25.26,3.538c-13.407,4.083-23.91,11.078-30.852,21.558c-0.125,0.188-0.266,0.37-0.399,0.554
			c-0.304-0.558-0.423-1.094-0.419-1.63c0.014-1.986,0.019-3.973,0.117-5.957c0.263-5.343,1.466-10.568,3.109-15.726
			c1.56-4.899,3.651-9.656,5.776-14.403c0.597-1.334,1.115-2.694,1.599-4.06c0.942-2.654-0.042-4.792-2.645-6.444
			c-0.68-0.431-1.37-0.873-2.126-1.196c-2.566-1.095-5.078-2.322-7.764-3.165c-6.843-2.149-13.864-3.835-21.082-4.913
			c-0.93-0.139-1.88-0.209-2.825-0.255c-3.405-0.166-5.918,1.082-7.706,3.43c-1.348,1.771-2.075,3.744-2.625,5.761
			c-1.731,6.346-1.821,12.794-1.618,19.245c0.097,3.069,0.337,6.143,0.73,9.195c0.503,3.909,1.178,7.803,1.873,11.692
			c0.343,1.917,0.898,3.808,1.387,5.831c-0.365-0.177-0.632-0.285-0.871-0.426c-8.591-5.063-18.258-7.755-28.648-8.762
			c-3.314-0.321-6.668-0.378-10.006-0.509c-4.666-0.183-9.315,0.059-13.912,0.738c-11.088,1.637-21.158,5.279-30.271,10.774
			c-11.097,6.69-19.516,15.279-25.793,25.315c-7.849,12.549-11.822,25.983-12.736,40.044c-0.407,6.262-0.108,12.518,0.926,18.737
			c1.299,7.812,3.433,15.465,6.391,22.954c3.791,9.597,8.921,18.643,16.112,26.832c7.176,8.171,15.873,14.958,26.755,19.61
			c20.041,8.567,41.188,10.782,63.302,7.133c8.311-1.371,16.375-3.424,24.334-5.808c2.633-0.789,5.296-1.512,7.957-2.236
			c2.617-0.712,5.165-0.544,7.619,0.499c2.168,0.922,4.357,1.81,6.504,2.763c6.589,2.925,13.474,5.257,20.67,6.918
			c8.287,1.913,16.742,3.042,25.346,3.438c6.201,0.286,12.367,0.214,18.523-0.579c11.446-1.474,21.788-5.124,31.027-10.895
			c8.604-5.375,15.472-12.06,21.095-19.654c4.365-5.894,7.959-12.119,11.603-18.326c7.062-12.028,10.585-24.768,11.244-38.067
			C365.968,274.583,365.879,269.633,365.51,264.686z M120.025,294.897c-1.428,6.596-7.516,11.551-14.235,11.69
			c-6.509,0.134-10.252-4.092-11.552-10.215c-0.397-1.873-0.367-3.837-0.52-5.76c-0.025-0.319-0.012-0.647,0.033-0.964
			c0.289-2.053,1.9-3.575,3.674-3.489c1.732,0.084,3.192,1.532,3.385,3.513c0.148,1.518,0.058,3.062,0.223,4.577
			c0.549,5.044,4.069,6.757,8.371,4.122c3.144-1.927,4.422-4.812,3.628-8.425c-0.828-3.765-2.761-7.013-4.978-10.097
			c-2.258-3.143-4.93-5.945-7.503-8.823c-2.898-3.241-5.787-6.486-8.065-10.217c-2.613-4.283-4.309-8.795-3.674-13.946
			c0.654-5.287,4.344-9.74,9.311-11.229c1.111-0.333,2.226-0.28,3.34-0.363c2.255-0.125,4.327,0.501,6.188,1.699
			c4.598,2.959,7.051,7.4,8.262,12.571c0.513,2.188-0.583,3.779-2.532,4.263c-1.754,0.436-3.317-0.485-4.137-2.465
			c-0.216-0.519-0.342-1.074-0.548-1.597c-0.354-0.895-0.701-1.798-1.123-2.664c-0.531-1.09-1.23-2.084-2.092-2.938
			c-3.815-3.786-7.878-1.53-9.279,1.992c-0.878,2.203-0.602,4.428,0.151,6.612c1.091,3.164,2.894,5.929,5.028,8.459
			c3.061,3.628,6.241,7.156,9.353,10.741c3.506,4.039,6.413,8.452,8.318,13.482C120.214,288.499,120.725,291.666,120.025,294.897z
			 M177.717,292.075c-0.167,1.73-1.245,2.887-2.835,3.115c-1.74,0.249-3.248-0.567-3.915-2.142c-0.251-0.596-0.323-1.229-0.371-1.88
			c-0.894-12.201-1.62-24.407-1.275-36.651c0.006-0.218-0.074-0.44-0.114-0.659c-0.151-0.046-0.302-0.091-0.453-0.135
			c-2.179,4.012-4.411,7.996-6.525,12.042c-2.16,4.133-4.201,8.325-6.3,12.489c-0.688,1.364-1.35,2.753-2.389,3.896
			c-2.167,2.384-5.144,2.457-7.429,0.187c-1.156-1.149-1.927-2.569-2.67-3.999c-4.077-7.849-8.293-15.627-12.124-23.603
			c-0.328-0.683-0.544-1.464-1.265-2.085c0,2.804-0.07,5.426,0.012,8.044c0.299,9.501-0.126,18.99-0.457,28.48
			c-0.148,4.263-0.252,8.529-0.246,12.794c0.003,2.1-0.276,4.169-0.393,6.253c-0.112,2.008-1.617,3.334-3.458,3.309
			c-1.802-0.025-3.315-1.396-3.391-3.402c-0.089-2.326,0.072-4.662,0.134-6.993c0.396-15.203,1.277-30.399,0.705-45.616
			c-0.163-4.343-0.353-8.683-0.48-13.027c-0.033-1.12-0.012-2.275,0.221-3.363c0.727-3.402,4.274-4.511,6.874-2.186
			c1.407,1.259,2.267,2.917,3.091,4.573c2.289,4.608,4.489,9.26,6.814,13.851c3.089,6.097,6.259,12.151,9.407,18.217
			c0.173,0.333,0.268,0.77,0.786,0.887c0.648-0.261,0.736-0.963,0.998-1.505c5.214-10.797,11.166-21.198,16.994-31.663
			c0.351-0.63,0.746-1.248,1.201-1.804c1.09-1.332,2.474-2.128,4.231-1.672c1.823,0.473,2.853,1.804,3.089,3.626
			c0.351,2.717,0.377,5.454,0.283,8.195c-0.197,5.792-0.361,11.582-0.174,17.381c0.252,7.802,0.674,15.591,1.385,23.365
			C177.73,290.949,177.77,291.52,177.717,292.075z M209.616,314.044c-1.394,0.578-2.756,0.234-3.91-1.021
			c-0.782-0.851-1.218-1.842-1.345-3.022c-0.591-5.514-1.789-10.935-2.557-16.422c-0.15-1.072-0.46-1.533-1.653-1.402
			c-3.668,0.403-7.345,0.703-11.02,1.026c-1.085,0.096-1.231,0.908-1.329,1.711c-0.221,1.834-0.396,3.674-0.578,5.513
			c-0.206,2.08-0.402,4.159-0.601,6.24c-0.023,0.241-0.018,0.485-0.064,0.72c-0.429,2.233-2.043,3.494-4.081,3.198
			c-1.817-0.264-3.133-1.99-2.954-4.071c0.273-3.202,0.568-6.406,0.983-9.592c0.833-6.374,1.182-12.793,1.858-19.181
			c1.397-13.195,3.519-26.266,6.772-39.14c0.315-1.247,0.738-2.47,1.537-3.51c1.783-2.316,4.716-2.4,6.635-0.197
			c0.973,1.118,1.459,2.488,1.924,3.858c1.843,5.422,2.898,11.036,3.795,16.666c2.492,15.627,4.872,31.272,7.314,46.907
			c0.335,2.143,0.777,4.268,1.17,6.402c0.115,0.63,0.232,1.26,0.286,1.551C211.787,312.311,211.063,313.444,209.616,314.044z
			 M244.903,294.897c-1.428,6.596-7.516,11.551-14.235,11.69c-6.509,0.134-10.252-4.092-11.552-10.215
			c-0.397-1.873-0.367-3.837-0.52-5.76c-0.025-0.319-0.012-0.647,0.033-0.964c0.289-2.053,1.9-3.575,3.674-3.489
			c1.732,0.084,3.192,1.532,3.385,3.513c0.148,1.518,0.058,3.062,0.223,4.577c0.549,5.044,4.069,6.757,8.371,4.122
			c3.144-1.927,4.422-4.812,3.628-8.425c-0.828-3.765-2.761-7.013-4.978-10.097c-2.258-3.143-4.93-5.945-7.503-8.823
			c-2.898-3.241-5.787-6.486-8.065-10.217c-2.613-4.283-4.309-8.795-3.674-13.946c0.654-5.287,4.344-9.74,9.311-11.229
			c1.111-0.333,2.226-0.28,3.34-0.363c2.255-0.125,4.327,0.501,6.188,1.699c4.598,2.959,7.051,7.4,8.262,12.571
			c0.513,2.188-0.583,3.779-2.532,4.263c-1.754,0.436-3.317-0.485-4.137-2.465c-0.216-0.519-0.342-1.074-0.548-1.597
			c-0.354-0.895-0.701-1.798-1.123-2.664c-0.531-1.09-1.23-2.084-2.092-2.938c-3.815-3.786-7.878-1.53-9.279,1.992
			c-0.878,2.203-0.602,4.428,0.151,6.612c1.091,3.164,2.894,5.929,5.028,8.459c3.061,3.628,6.241,7.156,9.353,10.741
			c3.506,4.039,6.413,8.452,8.318,13.482C245.091,288.499,245.603,291.666,244.903,294.897z M279.498,299.854
			c-1.962,0.256-3.755-1.278-4.094-3.578c-0.292-1.987-0.477-3.99-0.771-5.977c-0.239-1.608-0.376-1.712-2-1.402
			c-2.521,0.483-5.037,1.008-7.541,1.574c-2.267,0.512-4.506,1.167-6.783,1.627c-1.103,0.222-1.421,0.601-1.277,1.762
			c0.623,5.03,1.398,10.03,2.653,14.943c0.201,0.79,0.401,1.556,0.344,2.367c-0.105,1.523-1.152,2.828-2.525,3.185
			c-1.418,0.368-2.921-0.211-3.795-1.483c-0.511-0.744-0.702-1.604-0.914-2.469c-1.604-6.574-2.465-13.27-3.329-19.965
			c-1.121-8.689-1.962-17.41-2.318-26.16c-0.37-9.089-0.253-18.177,1.219-27.194c0.132-0.803,0.286-1.582,0.746-2.268
			c0.864-1.286,2.273-1.848,3.779-1.512c1.421,0.317,2.443,1.524,2.501,3.151c0.034,0.956-0.096,1.925-0.233,2.877
			c-1.509,10.489-1.257,20.999-0.54,31.531c0.277,4.088,0.72,8.156,1.062,12.235c0.059,0.709,0.19,1.412,0.305,2.243
			c3.837-0.846,7.576-1.682,11.321-2.491c1.647-0.356,3.298-0.705,4.962-0.967c1.113-0.175,1.438-0.709,1.32-1.799
			c-0.359-3.358-0.669-6.72-0.947-10.085c-0.746-8.992-0.64-18.007-0.66-27.018c-0.006-2.976,0.082-5.956-0.225-8.926
			c-0.076-0.729-0.009-1.436,0.259-2.133c0.55-1.433,1.63-2.242,3.098-2.309c1.487-0.068,2.589,0.73,3.255,2.082
			c0.441,0.893,0.483,1.853,0.49,2.825c0.042,5.954,0.131,11.909,0.138,17.864c0.013,10.632,0.87,21.204,2.075,31.76
			c0.429,3.755,0.898,7.502,1.389,11.248C282.778,297.809,281.575,299.582,279.498,299.854z M308.592,236.047
			c-0.335,1.904-2.224,3.168-4.381,2.786c-3.244-0.575-6.492-1.083-9.789-1.194c-2.117-0.071-2.15-0.052-2.278,1.984
			c-0.205,3.289-0.453,6.581-0.524,9.874c-0.235,10.935-0.325,21.873,0.003,32.808c0.09,2.999-0.225,2.918,2.94,2.867
			c1.207-0.019,2.417-0.081,3.618-0.008c2.301,0.141,3.832,1.624,3.792,3.564c-0.038,1.956-1.572,3.374-3.894,3.47
			c-1.758,0.073-3.521,0.015-5.584,0.015c-0.013,3.047,0.663,5.699,1.112,8.377c0.17,1.012,0.976,1.322,1.801,1.211
			c1.977-0.269,4.007-0.124,5.928-0.875c2.297-0.896,4.408,0.03,5.071,2.11c0.634,1.989-0.434,3.949-2.707,4.648
			c-3.746,1.153-7.62,1.254-11.462,0.796c-2.617-0.312-4.297-2.021-5.027-4.591c-0.993-3.493-1.504-7.08-1.848-10.672
			c-1.375-14.357-1.191-28.75-0.735-43.14c0.14-4.418,0.456-8.83,0.657-13.246c0.044-0.973,0.226-1.905,0.437-2.847
			c0.374-1.675,1.423-2.631,3.021-3.093c1.093-0.315,2.204-0.449,3.336-0.41c4.499,0.157,8.975,0.567,13.393,1.457
			C307.761,232.399,308.948,234.025,308.592,236.047z M326.217,304.167c-0.881,0.698-1.82,1.326-2.683,2.046
			c-1.24,1.035-2.692,1.399-4.247,1.462c-2.314,0.094-3.956-1.418-4.153-3.738c-1.15-13.514-2.387-27.02-3.435-40.542
			c-0.584-7.528-0.862-15.08-1.274-22.623c-0.058-1.056,0.086-2.071,0.503-3.062c0.615-1.465,1.646-2.305,3.242-2.508
			c1.782-0.227,3.515-0.094,5.238,0.407c12.489,3.619,19.744,12.039,22.478,24.562c0.738,3.38,1.215,6.805,1.081,10.305
			C342.78,284.377,337.087,295.559,326.217,304.167z"/>
	</g>
	<g>
		<g>
			<g>
				<path fill="#D69556" d="M168.129,158.673c0.711,4.112-4.326,12.437-8.462,15.517c-2.322,1.729-5.219-0.128-4.82-2.969
					c0.205-1.461,2.235-6.634,2.674-7.705c0.921-2.248,2.262-4.258,3.871-6.077C163.994,154.498,167.578,155.485,168.129,158.673z"
					/>
			</g>
			<g>
				<path fill="#D69556" d="M146.478,175.555c-0.678,2.299-4.006,2.442-4.912,0.42c-0.48-1.072-0.882-2.226-1.047-3.383
					c-1.31-9.183-1.017-10.341-0.32-12.35C142.579,153.378,151.872,157.273,146.478,175.555z"/>
			</g>
			<g>
				<path fill="#D69556" d="M123.431,165.048c0.613-1.69,2.277-2.327,3.834-1.439c3.808,2.17,5.917,8.164,7.816,12.393
					c1.385,3.084-0.85,5.954-3.925,3.847C130.05,179.091,121.617,170.048,123.431,165.048z"/>
			</g>
		</g>
		<g>
			<g>
				<path fill="#D69556" d="M245.017,158.973c0.764,4.103,8.38,10.158,13.329,11.607c2.779,0.814,4.849-1.934,3.487-4.46
					c-0.7-1.298-4.402-5.443-5.187-6.295c-1.645-1.787-3.601-3.206-5.743-4.352C247.443,153.621,244.425,155.793,245.017,158.973z"
					/>
			</g>
			<g>
				<path fill="#D69556" d="M271.187,167.275c1.435,1.92,4.605,0.897,4.751-1.314c0.078-1.172,0.053-2.394-0.195-3.536
					c-1.964-9.065-2.642-10.049-3.994-11.691C267.133,145.126,259.774,152.008,271.187,167.275z"/>
			</g>
			<g>
				<path fill="#D69556" d="M289.144,149.41c-1.162-1.371-2.944-1.39-4.095-0.016c-2.816,3.359-2.709,9.711-3.02,14.337
					c-0.227,3.373,2.867,5.287,5.017,2.243C287.82,164.878,292.583,153.468,289.144,149.41z"/>
			</g>
		</g>
	</g>
</g>
</svg>
